<?xml version="1.0" encoding="utf-8"?>
<!-- Generator: Adobe Illustrator 22.1.0, SVG Export Plug-In . SVG Version: 6.00 Build 0)  -->
<svg version="1.1" id="Layer_1" xmlns="http://www.w3.org/2000/svg" xmlns:xlink="http://www.w3.org/1999/xlink" x="0px" y="0px"
	 viewBox="0 0 512 512" style="enable-background:new 0 0 512 512;" xml:space="preserve">
<g>
	<path d="M89.7,56.1C70,67.7,31.4,112.1,31,123.8v19.3c0,24.5,22.9,45.9,43.6,45.9c24.9,0,45.7-20.7,45.7-45.2
		c0,24.5,20,45.2,45,45.2s44.3-20.7,44.3-45.2c0,24.5,21.3,45.2,46.2,45.2h0.5c24.9,0,46.2-20.7,46.2-45.2
		c0,24.5,19.4,45.2,44.3,45.2s45-20.7,45-45.2c0,24.5,20.8,45.2,45.7,45.2c20.8,0,43.6-21.5,43.6-45.9v-19.3
		c-0.4-11.7-39-56.1-58.7-67.8c-60.9-2.1-103.2-2.5-166.3-2.5S107,54.5,89.7,56.1z M209.3,177.5c-19.9,34.7-70.4,35-90.2,0.2
		c-11.9,20.9-39,29-50.6,25C64.9,239,56.1,417,84.4,446c72.3,16.9,273,16.4,343.2,0c28.6-29.2,19.3-209.7,16-243.2
		c-11.7,4-38.8-4.2-50.6-25c-19.9,34.8-70.4,34.4-90.2-0.2c-6.4,11.3-20.8,26.2-46.8,26.2C236.8,204.3,218.8,194.2,209.3,177.5
		L209.3,177.5z M171.7,226.1c14.9,0,28.1,0,44.5,17.9c26.5-2.7,53.2-2.7,79.7,0c16.4-17.8,29.6-17.8,44.5-17.8
		c47.3,0,58.9,70.1,75.8,130.5c15.6,56.2-5,57.5-30.7,57.6c-38.1-1.4-59.2-29.1-59.2-56.7c-35.5,5.8-92.1,7.9-140.6,0
		c0,27.7-21.1,55.3-59.2,56.7c-25.7-0.1-46.3-1.4-30.7-57.6C112.7,296.2,124.4,226.2,171.7,226.1L171.7,226.1z M256,269.4
		c0,0-40.1,36.8-47.3,49.9l26.2-1.1v22.9c0,1.4,19.3,0.1,21.1,0.1c10.5,0.5,21.1,0.9,21.1-0.1v-22.8l26.2,1.1
		C296.1,306.2,256,269.4,256,269.4L256,269.4z"/>
</g>
</svg>
